# Exported from Wings 3D 1.4.1
mtllib doublehouse.mtl
o cube2
#54 vertices, 104 faces
v -0.99449623 -8.7801795e-2 -4.3353203e-3
v -0.99449623 3.08984941 -4.3353203e-3
v 1.00550377 3.08984941 -4.3353203e-3
v 1.00550377 -8.7801795e-2 -4.3353203e-3
v -0.99449623 -8.7801795e-2 -2.00433532
v -0.99449623 1.91219821 -2.00433532
v 1.00550377 1.91219821 -2.00433532
v 1.00550377 -8.7801795e-2 -2.00433532
v 2.95697043 1.91219821 -4.3353203e-3
v 2.95697043 -8.7801795e-2 -4.3353203e-3
v 2.95697043 -8.7801795e-2 -2.00433532
v 2.95697043 1.91219821 -2.00433532
v 1.00550377 1.91219821 1.93721135
v 1.00550377 -8.7801795e-2 1.93721135
v -0.99449623 1.91219821 1.93721135
v -0.99449623 -8.7801795e-2 1.93721135
v 2.95697043 -8.7801795e-2 1.93721135
v 2.95697043 1.91219821 1.93721135
v -2.95182103 -8.7801795e-2 -4.3353203e-3
v -2.95182103 1.91219821 -4.3353203e-3
v -2.95182103 1.91219821 -2.00433532
v -2.95182103 -8.7801795e-2 -2.00433532
v -2.95182103 -8.7801795e-2 1.93721135
v -2.95182103 1.91219821 1.93721135
v -0.99895035 1.68982837 -2.63176712
v 1.00550377 1.75440787 -2.59476464
v 3.45397712 2.81101813 -2.5832385e-2
v 1.00550377 1.75108699 2.52977237
v -0.99905618 1.68453352 2.56728763
v -3.44882772 2.81074299 2.3173878e-2
v -3.44882772 1.64445712 -2.61129561
v 3.26228432 1.70764600 -2.63176700
v -3.44882772 1.63827283 2.54578639
v 3.26228432 1.70235116 2.56728751
v -0.99449623 2.22518397 -1.92070375
v -0.99449623 2.09569901 -2.00433532
v 1.00550377 2.22518397 -1.92070375
v 1.00550377 2.09569901 -2.00433532
v 2.86522003 3.08984941 -4.3353203e-3
v 2.95697043 2.99809901 -4.3353203e-3
v 1.00550377 2.22612065 1.85400876
v 1.00550377 2.09569901 1.93721135
v -0.99449623 2.22612065 1.85400876
v -0.99449623 2.09569901 1.93721135
v -2.86007063 3.08984941 -4.3353203e-3
v -2.95182103 2.99809901 -4.3353203e-3
v -2.95182103 2.10381784 -1.96660076
v 2.95697043 2.10381784 -1.96660076
v -2.95182103 2.10424681 1.89854011
v 2.95697043 2.10424681 1.89854011
v -2.86007063 2.22518397 -1.92070375
v 2.86522003 2.22612065 1.85400876
v 2.86522003 2.22518397 -1.92070375
v -2.86007063 2.22612065 1.85400876
vt 0.0000000e+0 0.19254333
vt 0.0000000e+0 0.38716467
vt 0.0000000e+0 0.77114477
vt 0.0000000e+0 0.91946790
vt 5.4096183e-7 0.76962220
vt 4.6593876e-4 0.57432684
vt 2.7984542e-3 0.93367871
vt 1.5495908e-2 3.7139417e-6
vt 1.5506709e-2 0.38557331
vt 3.6636528e-2 0.19098799
vt 3.7670273e-2 4.9682447e-2
vt 3.7683381e-2 0.33632612
vt 4.3894561e-2 0.71844715
vt 4.3896341e-2 0.43850875
vt 4.4239586e-2 0.57638633
vt 0.14832313 0.77114477
vt 0.14832313 0.91946790
vt 0.14832313 1.00000000
vt 0.18169470 0.38557331
vt 0.18170272 0.77114354
vt 0.18224648 0.71844715
vt 0.18224826 0.43850875
vt 0.18238610 4.6812761e-2
vt 0.18239896 0.33912288
vt 0.18259151 0.57638633
vt 0.18278511 2.7960194e-3
vt 0.18279796 0.38283889
vt 0.28944335 0.93371052
vt 0.29231127 0.77114477
vt 0.29231127 0.91946790
vt 0.29517918 0.93371052
vt 0.33037976 0.76840386
vt 0.33038034 0.38836012
vt 0.33056747 0.71844715
vt 0.33056925 0.43850875
vt 0.33069098 4.6812761e-2
vt 0.33070383 0.33912288
vt 0.33091250 0.57638633
vt 0.33150542 0.0000000e+0
vt 0.33150838 0.38556962
vt 0.43629940 0.77114477
vt 0.43629940 0.91946790
vt 0.43629940 1.00000000
vt 0.46848495 0.71844715
vt 0.46848673 0.43850875
vt 0.46882998 0.57638633
vt 0.47478782 0.19098799
vt 0.47582156 4.9682447e-2
vt 0.47583467 0.33632612
vt 0.49772491 0.38557456
vt 0.49772509 0.77114477
vt 0.51185996 0.18890891
vt 0.51238145 0.57796124
vt 0.51321584 1.5849392e-3
vt 0.51322547 0.14398814
vt 0.51322547 0.29231127
vt 0.51322547 0.29231127
vt 0.51322547 0.44063198
vt 0.51322547 0.45485853
vt 0.51322547 0.60317912
vt 0.51322547 0.61743828
vt 0.51322547 0.0000000e+0
vt 0.51322547 0.38404199
vt 0.58182408 0.93367871
vt 0.58462253 0.77114477
vt 0.58462253 0.91946790
vt 0.65794929 0.29231127
vt 0.65794929 0.29231127
vt 0.65794929 0.0000000e+0
vt 0.65794929 0.14398814
vt 0.65794929 0.44063198
vt 0.65794929 0.45424046
vt 0.65838374 0.45485853
vt 0.65838374 0.60317912
vt 0.65838374 0.61678760
vt 0.80627242 2.7755576e-17
vt 0.80627242 0.14398814
vt 0.80627242 0.29231127
vt 0.80627242 0.29231127
vt 0.80627242 0.44063198
vt 0.80627242 0.45424046
vt 0.80670687 0.45485853
vt 0.80670687 0.60317912
vt 0.80670687 0.61678760
vt 0.95143069 0.29231127
vt 0.95143069 5.5511151e-17
vt 0.95143069 0.14398814
vt 0.95143069 0.44063198
vt 0.95143069 0.45485853
vt 0.95143069 0.45485853
vt 0.95143069 0.60317912
vt 0.95143069 0.61743828
vn 0.0000000e+0 -1.00000000 0.0000000e+0
vn 0.0000000e+0 0.99998424 5.6143377e-3
vn 0.0000000e+0 0.99998424 5.6143377e-3
vn 0.0000000e+0 -1.00000000 0.0000000e+0
vn 0.0000000e+0 -0.80000000 -0.60000000
vn -2.7600183e-3 2.7666481e-2 -0.99961340
vn 0.0000000e+0 0.0000000e+0 -1.00000000
vn 0.0000000e+0 -0.55470020 -0.83205029
vn 1.00000000 0.0000000e+0 0.0000000e+0
vn 0.83205029 -0.55470020 0.0000000e+0
vn 0.57735027 -0.57735027 -0.57735027
vn 0.71073774 4.5491722e-2 -0.70198459
vn 0.0000000e+0 0.0000000e+0 1.00000000
vn 0.0000000e+0 -0.55470020 0.83205029
vn -2.8287967e-3 2.8268805e-2 0.99959635
vn 0.0000000e+0 -0.80000000 0.60000000
vn 0.40824829 -0.81649658 0.40824829
vn 0.71006147 3.4873618e-2 0.70327558
vn -0.60000000 -0.80000000 0.0000000e+0
vn -1.00000000 6.8057058e-16 0.0000000e+0
vn -0.70859192 4.5636531e-2 -0.70414118
vn -0.57735027 -0.57735027 -0.57735027
vn -0.66666667 -0.33333333 0.66666667
vn -0.70885243 6.9963579e-2 0.70187843
vn 3.3002150e-2 -0.57018121 -0.82085580
vn 3.9521011e-3 -0.53667620 -0.84377902
vn 0.93391177 -0.35749461 -2.5307952e-3
vn 4.0046964e-3 -0.53904914 0.84226480
vn 3.3672105e-2 -0.57333351 0.81862988
vn -0.94972353 -0.31307534 -3.0084597e-3
vn -0.68596928 -0.61109503 -0.39497976
vn 0.70866931 -0.57763443 -0.40512501
vn -0.69985038 -0.60068353 0.38650841
vn 0.70798045 -0.57955122 0.40358899
vn 0.0000000e+0 0.86047190 -0.50949790
vn -6.4274849e-3 -0.87840378 -0.47787602
vn -1.0355312e-3 0.86600000 -0.50004293
vn 5.5220420e-3 -0.85928088 -0.51147422
vn 0.22435708 0.97449667 4.4871655e-3
vn 0.63171391 -0.77519636 -2.8534351e-3
vn -1.0410956e-3 0.86226998 0.50644782
vn 5.6309033e-3 -0.85993011 0.51038074
vn 0.0000000e+0 0.85654924 0.51606531
vn -6.6227098e-3 -0.87935844 0.47611435
vn -0.22111620 0.97522182 7.0723448e-3
vn -0.61903685 -0.78532882 -7.2128035e-3
vn -0.38773728 -0.92137945 -2.6827432e-2
vn 0.43402804 -0.89992715 -4.1842399e-2
vn -0.40205918 -0.91549586 1.4688023e-2
vn 0.44318482 -0.89584135 3.2488422e-2
vn -0.14081967 0.86618747 -0.47946750
vn 0.13718919 0.86785518 0.47750027
vn 0.14062166 0.87156786 -0.46967544
vn -0.13284226 0.86241413 0.48846167
g cube2_cube2_auv
usemtl cube2_auv
s 1
f 1/77/1 5/78/5 4/70/4
f 1/77/1 16/76/16 19/87/19
f 2/25/2 37/34/37 35/21/35
f 2/25/2 41/35/41 3/38/3
f 2/25/2 51/13/51 45/15/45
f 2/25/2 54/14/54 43/22/43
f 3/38/3 37/34/37 2/25/2
f 3/38/3 39/46/39 37/34/37
f 4/70/4 5/78/5 8/67/8
f 4/70/4 16/76/16 1/77/1
f 4/70/4 17/62/17 14/69/14
f 5/79/5 6/80/6 8/68/8
f 5/78/5 19/87/19 22/85/22
f 6/80/6 5/79/5 21/88/21
f 6/80/6 38/72/38 7/71/7
f 6/80/6 47/89/47 36/81/36
f 7/71/7 8/68/8 6/80/6
f 7/71/7 38/72/38 12/58/12
f 8/68/8 7/71/7 11/57/11
f 8/67/8 11/56/11 4/70/4
f 9/42/9 40/43/40 18/30/18
f 10/55/10 4/70/4 11/56/11
f 10/55/10 17/62/17 4/70/4
f 10/41/10 18/30/18 17/29/17
f 11/57/11 7/71/7 12/58/12
f 11/65/11 9/42/9 10/41/10
f 12/66/12 9/42/9 11/65/11
f 12/58/12 38/72/38 48/59/48
f 12/66/12 40/43/40 9/42/9
f 13/83/13 14/82/14 18/91/18
f 13/83/13 42/84/42 15/74/15
f 14/82/14 13/83/13 16/73/16
f 14/69/14 16/76/16 4/70/4
f 15/74/15 16/73/16 13/83/13
f 15/74/15 42/84/42 44/75/44
f 15/74/15 49/61/49 24/60/24
f 16/73/16 15/74/15 23/59/23
f 17/90/17 18/91/18 14/82/14
f 18/30/18 10/41/10 9/42/9
f 18/30/18 40/43/40 50/31/50
f 18/91/18 42/84/42 13/83/13
f 19/87/19 5/78/5 1/77/1
f 20/17/20 47/7/47 21/4/21
f 20/17/20 49/28/49 46/18/46
f 21/4/21 19/16/19 20/17/20
f 21/88/21 47/89/47 6/80/6
f 22/3/22 19/16/19 21/4/21
f 22/85/22 21/88/21 5/79/5
f 23/86/23 19/87/19 16/76/16
f 23/29/23 20/17/20 19/16/19
f 24/30/24 20/17/20 23/29/23
f 24/60/24 23/59/23 15/74/15
f 24/30/24 49/28/49 20/17/20
f 25/20/25 37/34/37 26/32/26
f 25/40/25 38/24/38 36/37/36
f 25/40/25 47/49/47 31/63/31
f 25/20/25 51/13/51 35/21/35
f 26/27/26 32/9/32 38/24/38
f 26/32/26 37/34/37 32/51/32
f 27/1/27 34/8/34 40/10/40
f 27/53/27 39/46/39 34/50/34
f 28/26/28 29/39/29 42/23/42
f 28/33/28 41/35/41 29/19/29
f 29/19/29 41/35/41 43/22/43
f 29/39/29 49/48/49 44/36/44
f 29/19/29 54/14/54 33/2/33
f 30/52/30 47/49/47 46/47/46
f 30/52/30 49/48/49 33/54/33
f 30/6/30 51/13/51 31/5/31
f 30/6/30 54/14/54 45/15/45
f 31/63/31 47/49/47 30/52/30
f 31/5/31 51/13/51 25/20/25
f 32/51/32 37/34/37 53/44/53
f 32/51/32 39/46/39 27/53/27
f 32/9/32 40/10/40 48/12/48
f 33/54/33 49/48/49 29/39/29
f 33/2/33 54/14/54 30/6/30
f 34/50/34 39/46/39 52/45/52
f 34/50/34 41/35/41 28/33/28
f 34/8/34 42/23/42 50/11/50
f 35/21/35 37/34/37 25/20/25
f 35/21/35 51/13/51 2/25/2
f 36/81/36 38/72/38 6/80/6
f 36/37/36 47/49/47 25/40/25
f 38/24/38 25/40/25 26/27/26
f 40/10/40 32/9/32 27/1/27
f 41/35/41 39/46/39 3/38/3
f 42/23/42 34/8/34 28/26/28
f 43/22/43 41/35/41 2/25/2
f 43/22/43 54/14/54 29/19/29
f 44/36/44 42/23/42 29/39/29
f 44/75/44 49/61/49 15/74/15
f 45/15/45 51/13/51 30/6/30
f 45/15/45 54/14/54 2/25/2
f 46/18/46 47/7/47 20/17/20
f 46/47/46 49/48/49 30/52/30
f 48/12/48 38/24/38 32/9/32
f 48/64/48 40/43/40 12/66/12
f 50/11/50 40/10/40 34/8/34
f 50/92/50 42/84/42 18/91/18
f 52/45/52 39/46/39 41/35/41
f 52/45/52 41/35/41 34/50/34
f 53/44/53 37/34/37 39/46/39
f 53/44/53 39/46/39 32/51/32
